<?xml version="1.0" encoding="utf-8"?>
<!-- Generator: Adobe Illustrator 28.3.0, SVG Export Plug-In . SVG Version: 6.00 Build 0)  -->
<svg version="1.1" id="Layer_1" xmlns="http://www.w3.org/2000/svg" xmlns:xlink="http://www.w3.org/1999/xlink" x="0px" y="0px"
	 viewBox="0 0 31 31" style="enable-background:new 0 0 31 31;" xml:space="preserve">
<style type="text/css">
	.st0{fill:#FFFFFF;}
</style>
<path class="st0" d="M15.5,9.2c-3.5,0-6.3,2.9-6.3,6.3c0,3.4,2.9,6.3,6.3,6.3s6.3-2.9,6.3-6.3C21.8,12.1,19,9.2,15.5,9.2z"/>
<path class="st0" d="M23.5,0.1H7.5C3.4,0.1,0,3.5,0,7.6v16.1c0,4.1,3.4,7.5,7.5,7.5h16.1c4.1,0,7.5-3.4,7.5-7.5V7.6
	C31,3.5,27.6,0.1,23.5,0.1z M15.5,25.1c-5.3,0-9.5-4.2-9.5-9.5C6,10.4,10.2,6,15.5,6s9.5,4.4,9.5,9.7C25,20.9,20.8,25.1,15.5,25.1z
	 M25.4,7.7c-1.3,0-2.3-1-2.3-2.3c0-1.3,1-2.3,2.3-2.3c1.3,0.1,2.3,1.2,2.3,2.3C27.8,6.7,26.8,7.7,25.4,7.7z"/>
</svg>
